<?xml version="1.0" encoding="utf-8"?>
<!-- Generator: Adobe Illustrator 14.0.0, SVG Export Plug-In . SVG Version: 6.00 Build 43363)  -->
<svg version="1.2" baseProfile="tiny" xmlns="http://www.w3.org/2000/svg" xmlns:xlink="http://www.w3.org/1999/xlink" x="0px"
	 y="0px" width="1920px" height="1080px" viewBox="0 0 1920 1080" xml:space="preserve">
<g id="matte">
	<rect width="1920" height="1080"/>
</g>
<g id="outside">
	<path id="ST_1_" fill="#E5B13A" d="M620,524V266H451c-1.654,0-3,1.346-3,3c0,0.131,0.002,0.247,0.007,0.346l64.966,87.174
		l0.557,0.741c8.679,11.528,16.47,24.211,16.47,52.406c0,32.329-12.095,61.805-34.057,82.998
		C475.003,512.872,447.085,524,417.333,524H56V382h298.333c1.504,0,1.667-2.098,1.667-3c0-0.08-0.001-0.153-0.002-0.221
		c-8.182-9.697-53.674-63.626-62.898-74.695l-0.361-0.433L292.4,303.2c-8.643-11.523-16.4-24.263-16.4-53.2
		c0-32.315,11.877-61.99,33.444-83.556C330.365,145.522,358.264,134,388,134h538v132H762v258H620z"/>
	<path id="A1_1_" fill="#E5B13A" d="M1173.941,524l-16-50h-133.883l-16,50H867.755l126.242-390h191.918l128.497,390H1173.941z
		 M1117.364,356L1091,277.816L1064.636,356H1117.364z"/>
	<path id="R" fill="#E5B13A" d="M1630,524c-16.584,0-31.613-5.923-44.669-17.604c-22.18-19.845-60.608-55.969-89.331-83.151V524
		h-148V134h254c71.683,0,130,58.318,130,130c0,46.88-25.488,89.302-64.848,112.149c3.436,3.663,6.356,5.851,12.848,5.851h184v142
		H1630z M1573,290c10.477,0,19-8.523,19-19s-8.523-19-19-19h-77v38H1573z"/>
	<polygon id="W_1_" fill="#E5B13A" points="399.25,936 343.5,772.258 287.75,936 190.042,936 62.671,546 206.059,546 
		238.835,648.425 274.342,546 412.658,546 448.165,648.425 480.941,546 624.329,546 496.958,936 	"/>
	<path id="A" fill="#E5B13A" d="M869.941,936l-16-50H720.059l-16,50H563.755l126.243-390h191.917l128.498,390H869.941z M813.364,768
		L787,689.815L760.636,768H813.364z"/>
	<path id="RS_1_" fill="#E5B13A" d="M1330,936c-16.583,0-31.611-5.923-44.669-17.604c-22.18-19.846-60.608-55.97-89.331-83.152V936
		h-148V546h254c71.683,0,130,58.317,130,130c0,46.879-25.488,89.302-64.848,112.149c3.435,3.663,6.356,5.851,12.848,5.851h212.333
		c1.505,0,1.667-2.098,1.667-3c0-0.08-0.001-0.153-0.003-0.221c-8.177-9.692-53.673-63.626-62.897-74.695l-0.361-0.433l-0.338-0.451
		c-8.643-11.523-16.4-24.264-16.4-53.2c0-32.315,11.877-61.99,33.443-83.557C1568.365,557.522,1596.264,546,1626,546h238v132h-175
		c-1.654,0-3,1.346-3,3c0,0.131,0.003,0.246,0.007,0.346l64.967,87.174l0.557,0.741c8.68,11.527,16.47,24.21,16.47,52.405
		c0,32.329-12.095,61.805-34.057,82.998c-20.94,20.207-48.857,31.336-78.61,31.336H1330z M1273,702c10.477,0,19-8.523,19-19
		s-8.523-19-19-19h-77v38H1273z"/>
</g>
<g id="inside">
	<path id="ST" d="M904,156c0,0-482.139,0-516,0c-48,0-90,38-90,94c0,24,6,32,12,40c10,12,64,76,64,76c1.697,2.263,4,6,4,13
		c0,13.807-9.86,25-23.667,25C353.57,404,78,404,78,404v98c0,0,309.165,0,339.333,0c48,0,90.667-36.333,90.667-92.333
		c0-24-6.667-32-12.667-40L430,282c-1.697-2.263-4-6-4-13c0-13.807,11.193-25,25-25c1.315,0,191,0,191,0v258h98V244h164V156z"/>
	<path id="A1" d="M1170,156h-160L898,502h94l16-50h166l16,50h94L1170,156z M1034,378l57-169.035L1148,378H1034z"/>
	<path id="R_1_" d="M1680,404c-16,0-24.292-7.721-30-14c-20-22-20-22-20-22c45.944-12.419,80-54.128,80-104
		c0-59.647-48.353-108-108-108h-128h-104v346h104V372c0,0,88,84,126,118c4.216,3.772,14,12,30,12c11.222,0,212,0,212,0v-98
		C1842,404,1682.264,404,1680,404z M1474,230h99c22.644,0,41,18.356,41,41s-18.356,41-41,41h-99V230z"/>
	<polygon id="W" points="497,568 449,718 397,568 290,568 238,718 190,568 93,568 206,914 272,914 343.5,704 415,914 481,914 
		594,568 	"/>
	<path id="A2" d="M866,568H706L594,914h94l16-50h166l16,50h94L866,568z M730,790l57-169.035L844,790H730z"/>
	<path id="RS" d="M1689,656c1.315,0,153,0,153,0v-88c0,0-182.139,0-216,0c-48,0-90,38-90,94c0,24,6,32,12,40c10,12,64,76,64,76
		c1.697,2.263,4,6,4,13c0,13.807-9.859,25-23.667,25c-0.313,0-210.069,0-212.333,0c-16,0-24.292-7.721-30-14c-20-22-20-22-20-22
		c45.944-12.42,80-54.129,80-104c0-59.647-48.353-108-108-108h-128h-104v346h104V784c0,0,88,84,126,118c4.216,3.771,14,12,30,12
		c11.222,0,310.01,0,325.333,0c48,0,90.667-36.334,90.667-92.334c0-24-6.667-32-12.667-40L1668,694c-1.697-2.263-4-6-4-13
		C1664,667.193,1675.193,656,1689,656z M1273,724h-99v-82h99c22.644,0,41,18.356,41,41S1295.644,724,1273,724z"/>
</g>
</svg>
